<svg xmlns="http://www.w3.org/2000/svg" viewBox="0 0 64 120" width="34" height="64">
  <g transform="rotate(0 32 60)">
    <path d="M32 6 C22 6 16.5 13 15.5 24 L14.5 90 C14.5 104 22 112 32 112 C42 112 49.5 104 49.5 90 L48.5 24 C47.5 13 42 6 32 6Z" fill="#ffffff" stroke="#c9ccd2" stroke-width="1.5"/>
    <path d="M15.3 34 L10 36 C9 36.3 9 39.7 10 40 L15.3 40.5Z" fill="#ffffff" stroke="#c9ccd2" stroke-width="1"/>
    <path d="M48.7 34 L54 36 C55 36.3 55 39.7 54 40 L48.7 40.5Z" fill="#ffffff" stroke="#c9ccd2" stroke-width="1"/>
    <path d="M20 30 C24 25 40 25 44 30 L46 44 C40 40.5 24 40.5 18 44Z" fill="#2b333b"/>
    <path d="M19 74 C25 70.5 39 70.5 45 74 L43 88 C39 91.5 25 91.5 21 88Z" fill="#2b333b"/>
  </g>
</svg>
