<svg xmlns="http://www.w3.org/2000/svg" viewBox="0 0 48 64" width="30" height="40">
  <path d="M24 5 C16 5 11 10 10 17 L9 45 C9 53 14 58 24 58 C34 58 39 53 39 45 L38 17 C37 10 32 5 24 5Z" fill="#ffffff" stroke="#b0b8c0" stroke-width="1.1"/>
  <path d="M10 17 L9 45 C9 53 14 58 24 58 L24 5 C16 5 11 10 10 17Z" fill="#eceff1" opacity="0.6"/>
  <path d="M16 7 C20 5 28 5 32 7 L30 12 C27 10 21 10 18 12Z" fill="#ffffff" opacity="0.95"/>
  <path d="M15 15 C18 12 30 12 33 15 L34 25 L14 25Z" fill="#455a64"/>
  <path d="M14 27 L34 27 L32 43 L16 43Z" fill="#2f3640"/>
  <path d="M16 45 L32 45 L30 51 L18 51Z" fill="#455a64"/>
  <ellipse cx="10.5" cy="21" rx="2.6" ry="1.8" fill="#ffffff" stroke="#b0b8c0" stroke-width="0.7"/>
  <ellipse cx="37.5" cy="21" rx="2.6" ry="1.8" fill="#ffffff" stroke="#b0b8c0" stroke-width="0.7"/>
  <path d="M17 54 L31 54 L30 56.5 L18 56.5Z" fill="#e53935"/>
</svg>
