<svg xmlns="http://www.w3.org/2000/svg" viewBox="0 0 80 120" width="40" height="60">
  <g transform="rotate(0 40 60)">
    <rect x="23" y="25" width="5" height="18" rx="2.5" fill="#101010"/>
    <rect x="52" y="25" width="5" height="18" rx="2.5" fill="#101010"/>
    <rect x="22" y="76" width="5" height="18" rx="2.5" fill="#101010"/>
    <rect x="53" y="76" width="5" height="18" rx="2.5" fill="#101010"/>
    <path d="M40 7 C28 8 20 18 19 35 L17 84 C16 101 26 111 40 113 C54 111 64 101 63 84 L61 35 C60 18 52 8 40 7Z" fill="#ffffff" stroke="#30343a" stroke-width="2.2"/>
    <path d="M28 19 C32 13 48 13 52 19 L54 31 C48 27 32 27 26 31Z" fill="#f3f4f6" stroke="#30343a" stroke-width="0.8" opacity="0.95"/>
    <path d="M27 37 C31 30 49 30 53 37 L51 54 L29 54Z" fill="#263238"/>
    <rect x="28" y="57" width="24" height="24" rx="6" fill="#171717"/>
    <rect x="38.2" y="55" width="3.6" height="29" rx="1.8" fill="#070707"/>
    <path d="M29 84 L51 84 L49 97 C43 102 37 102 31 97Z" fill="#263238"/>
    <rect x="30" y="10" width="8" height="4" rx="2" fill="#fff3b0"/>
    <rect x="42" y="10" width="8" height="4" rx="2" fill="#fff3b0"/>
    <rect x="30" y="104" width="8" height="4" rx="2" fill="#d90000"/>
    <rect x="42" y="104" width="8" height="4" rx="2" fill="#d90000"/>
  </g>
</svg>
