<svg xmlns="http://www.w3.org/2000/svg" viewBox="0 0 80 120" width="40" height="60">
  <g transform="rotate(0 40 60)">
    <ellipse cx="42" cy="63" rx="18" ry="45" fill="rgba(0,0,0,0.28)"/>
    <path d="M40 8 C29 8 22 18 20 32 L17 88 C17 103 27 112 40 113 C53 112 63 103 63 88 L60 32 C58 18 51 8 40 8Z" fill="#ffffff" stroke="#777" stroke-width="2"/>
    <path d="M40 22 C30 22 25 31 25 45 L25 75 C25 88 31 95 40 95 C49 95 55 88 55 75 L55 45 C55 31 50 22 40 22Z" fill="#1c1c1c"/>
    <path d="M30 32 C34 26 46 26 50 32 L52 48 L28 48Z" fill="#455a64"/>
    <path d="M28 68 L52 68 L50 82 C44 88 36 88 30 82Z" fill="#455a64"/>
    <rect x="38" y="48" width="4" height="22" fill="#111"/>
    <rect x="15" y="35" width="6" height="15" rx="3" fill="#111"/>
    <rect x="59" y="35" width="6" height="15" rx="3" fill="#111"/>
    <rect x="15" y="75" width="6" height="15" rx="3" fill="#111"/>
    <rect x="59" y="75" width="6" height="15" rx="3" fill="#111"/>
    <rect x="32" y="10" width="7" height="4" rx="2" fill="#fff3b0"/>
    <rect x="41" y="10" width="7" height="4" rx="2" fill="#fff3b0"/>
    <rect x="32" y="104" width="7" height="4" rx="2" fill="#d90000"/>
    <rect x="41" y="104" width="7" height="4" rx="2" fill="#d90000"/>
    <rect x="34" y="6" width="12" height="3" rx="1.5" fill="#ddd"/>
  </g>
</svg>
